<svg width="48" height="48" viewBox="0 0 48 48" fill="none" xmlns="http://www.w3.org/2000/svg">
<path d="M24 4C12.96 4 4 12.96 4 24C4 35.04 12.96 44 24 44C35.04 44 44 35.04 44 24C44 12.96 35.04 4 24 4Z" fill="#1C2E4A"/>
<path d="M24 24.1627L32.4381 28.5707L24 33L15.5619 28.5707L24 24.1627Z" fill="url(#paint0_linear_101_5)"/>
<path d="M24 15L15.5619 19.4293L24 23.8587L32.4381 19.4293L24 15Z" fill="url(#paint1_linear_101_5)"/>
<path d="M24.3644 24.1627L32.8025 19.5707L24.3644 15V24.1627Z" fill="url(#paint2_linear_101_5)"/>
<path d="M23.6356 24.1627L15.1975 19.5707L23.6356 15V24.1627Z" fill="url(#paint3_linear_101_5)"/>
<defs>
<linearGradient id="paint0_linear_101_5" x1="15.5619" y1="28.5707" x2="32.4381" y2="28.5707" gradientUnits="userSpaceOnUse">
<stop stop-color="#00A0FF"/>
<stop offset="1" stop-color="#00D2FF"/>
</linearGradient>
<linearGradient id="paint1_linear_101_5" x1="15.5619" y1="19.4293" x2="32.4381" y2="19.4293" gradientUnits="userSpaceOnUse">
<stop stop-color="#00A0FF"/>
<stop offset="1" stop-color="#00D2FF"/>
</linearGradient>
<linearGradient id="paint2_linear_101_5" x1="24.3644" y1="19.5813" x2="32.8025" y2="19.5813" gradientUnits="userSpaceOnUse">
<stop stop-color="#00E5FF"/>
<stop offset="1" stop-color="#00B8FF"/>
</linearGradient>
<linearGradient id="paint3_linear_101_5" x1="15.1975" y1="19.5813" x2="23.6356" y2="19.5813" gradientUnits="userSpaceOnUse">
<stop stop-color="#00E5FF"/>
<stop offset="1" stop-color="#00B8FF"/>
</linearGradient>
</defs>
</svg>