<svg width="48" height="48" viewBox="0 0 48 48" fill="none" xmlns="http://www.w3.org/2000/svg">
<path d="M24 4C12.96 4 4 12.96 4 24C4 35.04 12.96 44 24 44C35.04 44 44 35.04 44 24C44 12.96 35.04 4 24 4Z" fill="#2A2A2A"/>
<path d="M24 42C14.064 42 6 33.936 6 24C6 14.064 14.064 6 24 6C33.936 6 42 14.064 42 24C42 33.936 33.936 42 24 42Z" fill="url(#paint0_linear_101_2)"/>
<path d="M24 42C14.064 42 6 33.936 6 24C6 14.064 14.064 6 24 6C33.936 6 42 14.064 42 24C42 33.936 33.936 42 24 42Z" fill="url(#paint1_radial_101_2)"/>
<path d="M33.6232 20.1913L24.8783 15.0348L24.8783 25.3478L33.6232 20.1913Z" fill="white" fill-opacity="0.5"/>
<path d="M16.1217 20.1913L24.8783 15.0348L24.8783 25.3478L16.1217 20.1913Z" fill="white"/>
<path d="M24.8783 27.2782L16.1217 32.4347L24.8783 37.5913L33.6232 32.4347L24.8783 27.2782Z" fill="white"/>
<defs>
<linearGradient id="paint0_linear_101_2" x1="24" y1="6" x2="24" y2="42" gradientUnits="userSpaceOnUse">
<stop stop-color="#000000" stop-opacity="0.4"/>
<stop offset="1" stop-color="#000000" stop-opacity="0"/>
</linearGradient>
<radialGradient id="paint1_radial_101_2" cx="0" cy="0" r="1" gradientUnits="userSpaceOnUse" gradientTransform="translate(24) rotate(90) scale(40)">
<stop stop-color="#FFFFFF" stop-opacity="0.4"/>
<stop offset="1" stop-color="#FFFFFF" stop-opacity="0"/>
</radialGradient>
</defs>
</svg>